<svg width="50" height="50" viewBox="0 0 50 50" fill="none" xmlns="http://www.w3.org/2000/svg">
<g clip-path="url(#clip0_1_5562)">
<path d="M25.0001 4.1665C21.1323 4.1665 17.423 5.70296 14.6881 8.43786C11.9532 11.1728 10.4167 14.8821 10.4167 18.7498V26.0998C10.417 26.423 10.3422 26.7418 10.198 27.0311L6.62091 34.1832C6.44618 34.5326 6.36367 34.9209 6.38122 35.3111C6.39878 35.7014 6.51581 36.0807 6.72121 36.413C6.92662 36.7454 7.21356 37.0197 7.5548 37.2099C7.89604 37.4001 8.28024 37.4999 8.67091 37.4998H41.3292C41.7199 37.4999 42.1041 37.4001 42.4454 37.2099C42.7866 37.0197 43.0735 36.7454 43.2789 36.413C43.4843 36.0807 43.6014 35.7014 43.6189 35.3111C43.6365 34.9209 43.554 34.5326 43.3792 34.1832L39.8042 27.0311C39.6594 26.742 39.5838 26.4232 39.5834 26.0998V18.7498C39.5834 14.8821 38.047 11.1728 35.312 8.43786C32.5771 5.70296 28.8678 4.1665 25.0001 4.1665ZM25.0001 43.7498C23.7071 43.7505 22.4456 43.3501 21.3897 42.6039C20.3338 41.8576 19.5353 40.8022 19.1042 39.5832H30.8959C30.4649 40.8022 29.6664 41.8576 28.6105 42.6039C27.5545 43.3501 26.2931 43.7505 25.0001 43.7498Z" fill="#6CE9BF"/>
<circle cx="33.5" cy="7.5" r="7.5" fill="#FE0B0B"/>
<path d="M31.776 8.736C32.288 8.30933 32.696 7.95467 33 7.672C33.304 7.384 33.5573 7.08533 33.76 6.776C33.9627 6.46667 34.064 6.16267 34.064 5.864C34.064 5.592 34 5.37867 33.872 5.224C33.744 5.06933 33.5467 4.992 33.28 4.992C33.0133 4.992 32.808 5.08267 32.664 5.264C32.52 5.44 32.4453 5.68267 32.44 5.992H31.352C31.3733 5.352 31.5627 4.86667 31.92 4.536C32.2827 4.20533 32.7413 4.04 33.296 4.04C33.904 4.04 34.3707 4.20267 34.696 4.528C35.0213 4.848 35.184 5.272 35.184 5.8C35.184 6.216 35.072 6.61333 34.848 6.992C34.624 7.37067 34.368 7.70133 34.08 7.984C33.792 8.26133 33.416 8.59733 32.952 8.992H35.312V9.92H31.36V9.088L31.776 8.736Z" fill="white"/>
</g>
<defs>
<clipPath id="clip0_1_5562">
<rect width="50" height="50" fill="white"/>
</clipPath>
</defs>
</svg>
